<svg width="267" height="58" viewBox="0 0 267 58" fill="none" xmlns="http://www.w3.org/2000/svg">
<path d="M11.424 45H19.632L30.96 11.4H23.712L15.552 37.224L7.344 11.4H0.144L11.424 45ZM49.2908 21V23.832C47.5628 21.672 44.9708 20.328 41.4668 20.328C35.0828 20.328 29.8027 25.848 29.8027 33C29.8027 40.152 35.0828 45.672 41.4668 45.672C44.9708 45.672 47.5628 44.328 49.2908 42.168V45H55.4828V21H49.2908ZM42.6188 39.768C38.8268 39.768 35.9948 37.032 35.9948 33C35.9948 28.968 38.8268 26.232 42.6188 26.232C46.4588 26.232 49.2908 28.968 49.2908 33C49.2908 37.032 46.4588 39.768 42.6188 39.768ZM83.2256 45L73.2896 32.856L82.9376 21H75.5456L67.2896 31.56V11.4H61.0976V45H67.2896V34.104L76.0256 45H83.2256ZM102.822 21V23.832C101.094 21.672 98.502 20.328 94.998 20.328C88.614 20.328 83.334 25.848 83.334 33C83.334 40.152 88.614 45.672 94.998 45.672C98.502 45.672 101.094 44.328 102.822 42.168V45H109.014V21H102.822ZM96.15 39.768C92.358 39.768 89.526 37.032 89.526 33C89.526 28.968 92.358 26.232 96.15 26.232C99.99 26.232 102.822 28.968 102.822 33C102.822 37.032 99.99 39.768 96.15 39.768ZM127.973 20.328C124.757 20.328 122.261 21.528 120.821 23.688V21H114.629V45H120.821V32.04C120.821 27.864 123.077 26.088 126.101 26.088C128.885 26.088 130.853 27.768 130.853 31.032V45H137.045V30.264C137.045 23.88 133.061 20.328 127.973 20.328ZM148.044 27.816C148.044 26.52 149.292 25.848 150.828 25.848C152.604 25.848 153.948 26.76 154.668 28.296L159.948 25.416C158.076 22.104 154.716 20.328 150.828 20.328C145.884 20.328 141.708 23.064 141.708 27.96C141.708 36.408 154.092 34.488 154.092 37.992C154.092 39.384 152.748 40.056 150.78 40.056C148.38 40.056 146.748 38.904 146.076 36.936L140.7 39.96C142.428 43.656 145.98 45.672 150.78 45.672C155.916 45.672 160.428 43.176 160.428 37.992C160.428 29.16 148.044 31.368 148.044 27.816ZM167.482 18.12C169.594 18.12 171.322 16.392 171.322 14.328C171.322 12.264 169.594 10.488 167.482 10.488C165.418 10.488 163.69 12.264 163.69 14.328C163.69 16.392 165.418 18.12 167.482 18.12ZM164.41 45H170.602V21H164.41V45ZM191.918 21L186.59 37.128L180.35 21H173.582L183.422 44.232C182.27 47.448 180.542 48.888 177.134 48.84V54.6C183.23 54.936 187.31 51.912 189.806 45L198.542 21H191.918ZM218.791 21V23.832C217.063 21.672 214.471 20.328 210.967 20.328C204.583 20.328 199.303 25.848 199.303 33C199.303 40.152 204.583 45.672 210.967 45.672C214.471 45.672 217.063 44.328 218.791 42.168V45H224.983V21H218.791ZM212.119 39.768C208.327 39.768 205.495 37.032 205.495 33C205.495 28.968 208.327 26.232 212.119 26.232C215.959 26.232 218.791 28.968 218.791 33C218.791 37.032 215.959 39.768 212.119 39.768Z" fill="black"/>
<path d="M263.91 25.272H255.99V17.4H250.182V25.272H242.31V31.08H250.182V39H255.99V31.08H263.91V25.272Z" fill="#007AFF"/>
<circle cx="167.5" cy="14.5" r="4.5" fill="#007AFF"/>
</svg>
