 <svg width="24" height="24" viewBox="0 0 24 24" fill="none"
                                xmlns="http://www.w3.org/2000/svg">
                                <path
                                    d="M12.0049 22.003C6.48188 22.003 2.00488 17.526 2.00488 12.003C2.00488 6.47999 6.48188 2.00299 12.0049 2.00299C17.5279 2.00299 22.0049 6.47999 22.0049 12.003C22.0049 17.526 17.5279 22.003 12.0049 22.003ZM8.50488 14.003V16.003H11.0049V18.003H13.0049V16.003H14.0049C14.6679 16.003 15.3038 15.7396 15.7726 15.2708C16.2415 14.8019 16.5049 14.166 16.5049 13.503C16.5049 12.8399 16.2415 12.2041 15.7726 11.7352C15.3038 11.2664 14.6679 11.003 14.0049 11.003H10.0049C9.87227 11.003 9.7451 10.9503 9.65133 10.8565C9.55756 10.7628 9.50488 10.6356 9.50488 10.503C9.50488 10.3704 9.55756 10.2432 9.65133 10.1494C9.7451 10.0557 9.87227 10.003 10.0049 10.003H15.5049V8.00299H13.0049V6.00299H11.0049V8.00299H10.0049C9.34184 8.00299 8.70596 8.26638 8.23712 8.73522C7.76827 9.20406 7.50488 9.83995 7.50488 10.503C7.50488 11.166 7.76827 11.8019 8.23712 12.2708C8.70596 12.7396 9.34184 13.003 10.0049 13.003H14.0049C14.1375 13.003 14.2647 13.0557 14.3584 13.1494C14.4522 13.2432 14.5049 13.3704 14.5049 13.503C14.5049 13.6356 14.4522 13.7628 14.3584 13.8565C14.2647 13.9503 14.1375 14.003 14.0049 14.003H8.50488Z"
                                    fill="#007AFF" />
                            </svg>