<svg width="36" height="36" viewBox="0 0 36 36" fill="none" xmlns="http://www.w3.org/2000/svg">
<path d="M0 9V13H36V9C36 7.93913 35.5786 6.92172 34.8284 6.17157C34.0783 5.42143 33.0609 5 32 5H4C2.93913 5 1.92172 5.42143 1.17157 6.17157C0.421427 6.92172 0 7.93913 0 9Z" fill="#0099B5"/>
<path d="M36 27V23H0V27C0 28.0609 0.421427 29.0783 1.17157 29.8284C1.92172 30.5786 2.93913 31 4 31H32C33.0609 31 34.0783 30.5786 34.8284 29.8284C35.5786 29.0783 36 28.0609 36 27Z" fill="#1EB53A"/>
<path d="M0 13H36V14.5H0V13ZM0 21.5H36V23H0V21.5Z" fill="#CE1126"/>
<path d="M0 18V21.5H36V14.5H0V18Z" fill="white"/>
<path d="M4.20009 9.15998C4.20018 8.42272 4.46134 7.70931 4.93727 7.14625C5.4132 6.58319 6.07315 6.20685 6.80009 6.08398C6.35258 6.00802 5.89388 6.03061 5.45601 6.15019C5.01813 6.26978 4.61162 6.48346 4.26483 6.77634C3.91805 7.06922 3.63935 7.43424 3.44818 7.84593C3.257 8.25762 3.15796 8.70607 3.15796 9.15998C3.15796 9.61389 3.257 10.0623 3.44818 10.474C3.63935 10.8857 3.91805 11.2507 4.26483 11.5436C4.61162 11.8365 5.01813 12.0502 5.45601 12.1698C5.89388 12.2893 6.35258 12.3119 6.80009 12.236C6.07315 12.1131 5.4132 11.7368 4.93727 11.1737C4.46134 10.6106 4.20018 9.89724 4.20009 9.15998ZM8.88309 11.463L8.74309 11.032L8.60309 11.463H8.14909L8.51609 11.73L8.37609 12.161L8.74309 11.894L9.10909 12.161L8.96909 11.73L9.33609 11.463H8.88309ZM11.5851 11.463L11.4451 11.032L11.3051 11.463H10.8521L11.2191 11.73L11.0791 12.161L11.4451 11.894L11.8121 12.161L11.6721 11.73L12.0391 11.463H11.5851ZM11.4451 8.53598L11.3051 8.96698H10.8521L11.2191 9.23398L11.0791 9.66498L11.4451 9.39798L11.8121 9.66498L11.6721 9.23398L12.0391 8.96698H11.5851L11.4451 8.53598ZM14.2881 11.463L14.1481 11.032L14.0081 11.463H13.5551L13.9211 11.73L13.7811 12.161L14.1481 11.894L14.5151 12.161L14.3751 11.73L14.7411 11.463H14.2881ZM14.1481 8.53598L14.0081 8.96698H13.5551L13.9211 9.23398L13.7811 9.66498L14.1481 9.39798L14.5151 9.66498L14.3751 9.23398L14.7411 8.96698H14.2881L14.1481 8.53598ZM14.1481 6.03998L14.0081 6.47098H13.5551L13.9211 6.73798L13.7811 7.16898L14.1481 6.90198L14.5151 7.16898L14.3751 6.73798L14.7411 6.47098H14.2881L14.1481 6.03998ZM16.9911 11.463L16.8511 11.032L16.7111 11.463H16.2571L16.6241 11.73L16.4841 12.161L16.8511 11.894L17.2171 12.161L17.0771 11.73L17.4441 11.463H16.9911ZM16.8511 8.53598L16.7111 8.96698H16.2571L16.6241 9.23398L16.4841 9.66498L16.8511 9.39798L17.2171 9.66498L17.0771 9.23398L17.4441 8.96698H16.9911L16.8511 8.53598ZM16.8511 6.03998L16.7111 6.47098H16.2571L16.6241 6.73798L16.4841 7.16898L16.8511 6.90198L17.2171 7.16898L17.0771 6.73798L17.4441 6.47098H16.9911L16.8511 6.03998ZM19.6931 11.463L19.5531 11.032L19.4131 11.463H18.9601L19.3271 11.73L19.1871 12.161L19.5531 11.894L19.9201 12.161L19.7801 11.73L20.1471 11.463H19.6931ZM19.5531 8.53598L19.4131 8.96698H18.9601L19.3271 9.23398L19.1871 9.66498L19.5531 9.39798L19.9201 9.66498L19.7801 9.23398L20.1471 8.96698H19.6931L19.5531 8.53598ZM19.5531 6.03998L19.4131 6.47098H18.9601L19.3271 6.73798L19.1871 7.16898L19.5531 6.90198L19.9201 7.16898L19.7801 6.73798L20.1471 6.47098H19.6931L19.5531 6.03998Z" fill="white"/>
</svg>
