<svg width="36" height="22" viewBox="0 0 36 22" fill="none" xmlns="http://www.w3.org/2000/svg">
<path d="M18.0001 0.752502L17.6479 0.859377L3.58543 5.57088L0.388184 6.625L2.25006 7.22125V17.065C1.57843 17.4554 1.12506 18.1675 1.12506 19C1.12506 19.5967 1.36211 20.169 1.78407 20.591C2.20603 21.0129 2.77832 21.25 3.37506 21.25C3.9718 21.25 4.54409 21.0129 4.96605 20.591C5.38801 20.169 5.62506 19.5967 5.62506 19C5.62506 18.1675 5.17168 17.4554 4.50006 17.065V7.9975L6.75006 8.73438V14.5C6.75006 15.4225 7.31256 16.1875 7.98081 16.7163C8.64906 17.2416 9.47931 17.6129 10.4761 17.9459C12.4718 18.6096 15.1021 19 18.0001 19C20.8981 19 23.5283 18.6108 25.5241 17.9448C26.5208 17.6129 27.3511 17.2416 28.0193 16.7151C28.6876 16.1875 29.2501 15.4225 29.2501 14.5V8.73438L32.4147 7.67913L35.6119 6.625L32.4136 5.56975L18.3511 0.859377L18.0001 0.752502ZM18.0001 3.10938L28.5469 6.625L18.0001 10.1406L7.45318 6.625L18.0001 3.10938ZM9.00006 9.50838L17.6491 12.3906L18.0001 12.4964L18.3522 12.3895L27.0001 9.50725V14.5C27.0001 14.5113 27.0046 14.6418 26.6479 14.9219C26.2924 15.2031 25.6546 15.5575 24.8198 15.8365C23.1526 16.3911 20.6944 16.75 18.0001 16.75C15.3057 16.75 12.8476 16.3923 11.1792 15.8354C10.3467 15.5575 9.70768 15.202 9.35218 14.9219C8.99443 14.6406 9.00006 14.5113 9.00006 14.5V9.50838Z" fill="#0153A7"/>
</svg>
